<svg xmlns="http://www.w3.org/2000/svg" viewBox="0 0 32 32">
  <rect width="32" height="32" fill="#1b1c19"/>
  <g transform="translate(3.5,29.5) scale(0.01,-0.01)" fill="#fbf9f4" stroke="none">
    <path d="M735 2460 l-370 -5 -70 -30 c-104 -45 -158 -79 -206 -133 -161 -180
-89 -526 113 -549 195 -22 308 208 157 319 -27 20 -92 26 -156 14 -38 -8 -43
-6 -58 18 -15 23 -16 33 -6 66 24 79 99 138 220 172 104 29 201 19 251 -27 22
-20 50 -76 62 -125 12 -53 11 -1828 -2 -1884 -26 -118 -102 -170 -267 -183
-91 -7 -99 -14 -91 -78 l3 -27 610 -1 609 -1 7 34 c12 59 1 66 -105 73 -52 4
-112 14 -133 22 -48 20 -98 68 -126 120 l-22 40 -3 1014 c-2 811 0 1016 10
1023 23 14 301 9 385 -7 240 -45 387 -201 429 -455 19 -114 12 -331 -14 -421
-51 -181 -173 -287 -342 -297 -111 -6 -155 9 -216 75 -44 47 -56 55 -77 49
-57 -14 -39 -94 37 -164 71 -65 140 -92 264 -102 161 -13 297 12 439 79 225
108 367 290 408 526 65 372 -112 664 -477 786 -147 49 -371 71 -698 67 -107
-2 -361 -5 -565 -8z"/>
  </g>
</svg>
