<svg xmlns="http://www.w3.org/2000/svg" width="1280" height="640" viewBox="0 0 1280 640">
  <rect width="1280" height="640" fill="#fbf9f4"/>
  <g transform="translate(340, 220) scale(0.55)">
    <g transform="translate(0,267) scale(0.1,-0.1)" fill="#1b1c19" stroke="none">
      <path d="M10165 2649 c-148 -40 -292 -135 -391 -258 -89 -111 -145 -245 -165 -397 -18 -142 -8 -133 -146 -136 l-118 -3 -3 -48 c-2 -27 2 -54 8 -61 7 -9 43 -13 121 -14 61 0 112 -2 115 -5 2 -2 5 -326 7 -719 l2 -714 -27 -41 c-32 -48 -78 -71 -172 -87 l-71 -12 -3 -47 -3 -47 43 0 c24 0 261 0 528 -1 267 0 491 0 498 0 9 1 12 15 10 48 l-3 48 -90 7 c-131 11 -177 24 -213 61 -63 65 -61 38 -68 806 l-6 701 23 1 c13 0 134 2 269 3 135 1 251 5 258 10 7 4 12 29 12 61 0 50 -2 54 -28 59 -15 4 -135 5 -267 4 -132 -2 -246 1 -252 5 -17 10 -18 422 -2 496 5 27 23 69 39 94 23 37 39 49 87 67 52 19 64 21 110 10 65 -14 103 -56 128 -138 41 -140 68 -180 140 -213 52 -24 92 -24 158 1 87 33 127 93 127 192 -1 178 -185 289 -475 287 -74 -1 -133 -7 -180 -20z M735 2510 l-370 -5 -70 -30 c-104 -45 -158 -79 -206 -133 -161 -180 -89 -526 113 -549 195 -22 308 208 157 319 -27 20 -92 26 -156 14 -38 -8 -43 -6 -58 18 -15 23 -16 33 -6 66 24 79 99 138 220 172 104 29 201 19 251 -27 22 -20 50 -76 62 -125 12 -53 11 -1828 -2 -1884 -26 -118 -102 -170 -267 -183 -91 -7 -99 -14 -91 -78 l3 -27 610 -1 609 -1 7 34 c12 59 1 66 -105 73 -52 4 -112 14 -133 22 -48 20 -98 68 -126 120 l-22 40 -3 1014 c-2 811 0 1016 10 1023 23 14 301 9 385 -7 240 -45 387 -201 429 -455 19 -114 12 -331 -14 -421 -51 -181 -173 -287 -342 -297 -111 -6 -155 9 -216 75 -44 47 -56 55 -77 49 -57 -14 -39 -94 37 -164 71 -65 140 -92 264 -102 161 -13 297 12 439 79 225 108 367 290 408 526 65 372 -112 664 -477 786 -147 49 -371 71 -698 67 -107 -2 -361 -5 -565 -8z M5545 1933 c-293 -34 -516 -160 -686 -386 -75 -100 -105 -151 -134 -232 -137 -376 -57 -771 210 -1037 205 -205 496 -302 813 -270 261 26 471 127 639 306 171 184 262 413 263 661 0 183 -23 290 -93 430 -53 106 -88 156 -166 238 -141 147 -311 237 -533 282 -70 14 -231 18 -313 8z m245 -153 c30 -12 75 -38 99 -57 185 -152 271 -428 271 -871 0 -460 -128 -680 -417 -716 -320 -39 -497 163 -584 664 -17 99 -18 433 -1 525 48 263 170 431 346 476 60 16 227 3 286 -21z M7816 1925 c-207 -43 -382 -137 -519 -278 -203 -211 -295 -468 -276 -774 8 -127 22 -185 69 -294 76 -175 190 -314 343 -416 346 -232 864 -213 1197 42 392 301 504 852 257 1271 -61 105 -211 261 -299 312 -85 50 -223 107 -308 127 -101 24 -368 30 -464 10z m288 -130 c192 -50 325 -233 386 -530 31 -152 42 -370 28 -535 -22 -266 -69 -394 -183 -498 -84 -77 -143 -97 -290 -96 -113 1 -124 3 -188 32 -163 75 -260 240 -323 549 -45 226 -44 533 3 703 55 196 171 337 310 375 66 18 187 18 257 0z M3285 1859 c-142 -94 -304 -164 -475 -207 -34 -8 -35 -10 -35 -58 l0 -49 71 -6 c130 -12 168 -46 185 -163 4 -33 9 -281 10 -551 1 -505 -2 -556 -39 -599 -26 -29 -96 -57 -165 -64 l-62 -7 -3 -47 -3 -48 480 -2 c265 -1 500 -2 523 -3 39 0 42 2 50 33 15 58 1 69 -100 74 -145 8 -213 51 -238 150 -17 64 -19 843 -3 905 36 135 126 303 207 386 58 58 132 97 187 97 63 0 72 -13 77 -106 5 -94 31 -149 91 -198 33 -26 48 -31 108 -34 127 -8 211 49 245 164 35 122 -4 251 -96 319 -165 121 -432 92 -607 -66 -61 -55 -138 -152 -178 -224 -20 -36 -42 -65 -49 -65 -10 0 -14 50 -19 201 -4 126 -11 207 -18 215 -20 24 -52 14 -144 -47z"/>
    </g>
  </g>
</svg>
